<svg width="81" height="81" viewBox="0 0 81 81" fill="none" xmlns="http://www.w3.org/2000/svg">
<path d="M34.6461 64.2118L31.7092 70.5659L30.9546 70.2449L30.2848 64.2136L30.6896 64.3859L25.6176 67.9741L24.8631 67.653L27.7908 61.295L28.6742 61.6708L26.38 66.6582L26.1684 66.5681L30.6548 63.4369L31.0781 63.617L31.6894 68.9172L31.4593 68.8194L33.7627 63.8359L34.6461 64.2118Z" fill="white"/>
<path d="M27.3273 61.2408L19.9318 63.9883L19.1946 63.3275L21.8614 56.3419L22.6433 57.0427L20.1187 63.4056L19.8208 63.1387L26.5603 60.5534L27.3273 61.2408ZM25.0633 61.5556L24.2868 61.9312L21.3528 59.3015L21.7122 58.5522L25.0633 61.5556Z" fill="white"/>
<path d="M21.4215 55.9464L15.2035 59.1614L13.7572 56.846C13.4323 56.3258 13.2409 55.8375 13.1831 55.3812C13.1253 54.9249 13.1974 54.5136 13.3995 54.1473C13.6016 53.781 13.9277 53.4815 14.3777 53.2488C14.8278 53.0161 15.2775 52.9145 15.7268 52.9439C16.1702 52.9765 16.5955 53.1306 17.0027 53.4063C17.404 53.685 17.7672 54.0845 18.0921 54.6047L19.247 56.4536L18.5911 56.2878L20.8918 55.0983L21.4215 55.9464ZM18.6799 56.2419L18.4742 56.8532L17.3352 55.0297C16.9961 54.4869 16.6187 54.1397 16.2028 53.9882C15.7834 53.831 15.3516 53.8673 14.9075 54.0969C14.4634 54.3265 14.2082 54.6455 14.142 55.0537C14.0722 55.4563 14.2069 55.929 14.5459 56.4719L15.685 58.2954L15.0024 58.1433L18.6799 56.2419Z" fill="white"/>
<path d="M16.474 45.555L13.8197 48.7405L13.104 48.0715L16.1537 44.4609L16.474 45.555ZM17.7974 50.0753L10.9638 51.5926L10.6884 50.6521L17.522 49.1347L17.7974 50.0753ZM14.5995 50.0903L13.7405 50.281L13.1026 48.1025L13.9617 47.9117L14.5995 50.0903ZM13.6254 47.8638L13.7472 48.777L9.65445 47.1203L9.3538 46.0934L13.6254 47.8638Z" fill="white"/>
<path d="M17.0278 43.4767L10.0279 43.4363L9.87297 38.4987L10.743 38.5037L10.8666 42.4418L16.1265 42.4722L15.9985 38.3942L16.8685 38.3992L17.0278 43.4767ZM13.8693 42.5491L13.0193 42.5442L12.9064 38.9459L13.7564 38.9509L13.8693 42.5491Z" fill="white"/>
<path d="M17.2667 36.3832L11.0102 35.0839L11.3147 34.8918L10.7869 37.4785L9.93506 37.3016L11.0887 31.6481L11.9405 31.825L11.4127 34.4117L11.2061 34.1237L17.4626 35.423L17.2667 36.3832Z" fill="white"/>
<path d="M18.2115 32.2573L11.8577 29.3197L12.3049 28.4365L17.2064 30.7026L14.175 24.7429L14.5906 23.9222L20.9444 26.8598L20.5017 27.7341L15.6093 25.4721L18.627 31.4366L18.2115 32.2573Z" fill="white"/>
<path d="M24.5054 21.7054L19.1699 17.174L19.8688 16.4588L25.2043 20.9902L24.5054 21.7054ZM20.9969 25.2958L15.6615 20.7644L16.3604 20.0492L21.6958 24.5806L20.9969 25.2958ZM19.2478 22.6324L18.5847 22.0692L21.5271 19.0581L22.1902 19.6213L19.2478 22.6324Z" fill="white"/>
<path d="M26.7369 20.1782L22.6505 14.4948L26.5826 12.127L27.0819 12.8386L23.7923 14.8194L23.852 14.4927L27.585 19.6675L26.7369 20.1782Z" fill="white"/>
<path d="M34.0428 17.026C33.53 17.1726 33.0216 17.2245 32.5176 17.1818C32.02 17.1373 31.556 17.0106 31.1258 16.8016C30.6932 16.5863 30.3129 16.3008 29.9848 15.9451C29.6567 15.5893 29.4046 15.1704 29.2286 14.6882C29.0525 14.206 28.9799 13.7357 29.0107 13.2774C29.0416 12.819 29.1624 12.3937 29.3732 12.0016C29.5816 11.6031 29.8729 11.257 30.2471 10.9634C30.6212 10.6697 31.0679 10.4487 31.5871 10.3003C32.0999 10.1538 32.6019 10.1036 33.0931 10.15C33.5884 10.1882 34.0524 10.315 34.4849 10.5302C34.9216 10.7374 35.3008 11.0197 35.6224 11.3773C35.9506 11.7331 36.2038 12.1552 36.3821 12.6436C36.5605 13.1321 36.6342 13.6055 36.6034 14.0639C36.5789 14.5204 36.4593 14.9488 36.2444 15.349C36.0336 15.7412 35.7412 16.0842 35.3671 16.3778C34.997 16.6634 34.5556 16.8794 34.0428 17.026ZM33.7376 16.19C34.1094 16.0837 34.4294 15.9231 34.6978 15.7081C34.9726 15.4912 35.1842 15.2371 35.3326 14.9457C35.4852 14.6462 35.5695 14.3247 35.5857 13.9813C35.6083 13.6359 35.5532 13.2817 35.4206 12.9184C35.288 12.5552 35.0984 12.2394 34.8517 11.9711C34.6115 11.7008 34.3316 11.4869 34.0121 11.3293C33.6968 11.1635 33.356 11.0638 32.9897 11.0302C32.6299 10.9947 32.2641 11.0301 31.8923 11.1363C31.5142 11.2444 31.1877 11.4069 30.9129 11.6237C30.6445 11.8387 30.4341 12.096 30.2815 12.3955C30.1267 12.6887 30.0379 13.008 30.0154 13.3533C29.9992 13.6968 30.0574 14.0502 30.1901 14.4134C30.3227 14.7766 30.5091 15.0933 30.7493 15.3635C30.996 15.6319 31.2802 15.848 31.602 16.012C31.9215 16.1696 32.2611 16.2662 32.6209 16.3017C32.9872 16.3353 33.3594 16.2981 33.7376 16.19Z" fill="white"/>
<path d="M38.4459 16.0981L38.4308 9.09815L41.4393 9.19145C42.199 9.21501 42.7957 9.38684 43.2295 9.70694C43.6633 10.027 43.8808 10.4804 43.8821 11.0671C43.8833 11.6404 43.6777 12.074 43.2652 12.3679C42.8527 12.6551 42.31 12.7882 41.637 12.7673L41.8162 12.4729C42.5958 12.4971 43.1926 12.6723 43.6064 12.9984C44.0268 13.3181 44.2377 13.7746 44.239 14.3679C44.2403 14.9679 44.0214 15.4311 43.5824 15.7575C43.15 16.0774 42.504 16.224 41.6444 16.1973L38.4459 16.0981ZM39.4337 15.3388L41.6227 15.4067C42.1558 15.4232 42.5554 15.339 42.8215 15.1539C43.0942 14.9624 43.2302 14.6633 43.2293 14.2566C43.2284 13.85 43.0912 13.5491 42.8176 13.3539C42.5506 13.159 42.1506 13.0532 41.6176 13.0367L39.4286 12.9688L39.4337 15.3388ZM39.427 12.2088L41.376 12.2693C41.8625 12.2844 42.2321 12.1992 42.4849 12.0137C42.7443 11.8284 42.8736 11.5491 42.8728 11.1758C42.872 10.7958 42.7415 10.5051 42.4812 10.3037C42.2275 10.1025 41.8575 9.99437 41.3711 9.97928L39.422 9.91883L39.427 12.2088Z" fill="white"/>
<path d="M48.2638 17.5679C47.7618 17.3878 47.3264 17.1361 46.9578 16.8126C46.5954 16.4914 46.3145 16.1251 46.1151 15.7137C45.9181 15.2961 45.8092 14.8533 45.7884 14.3856C45.7675 13.9179 45.8488 13.4443 46.0323 12.9648C46.2158 12.4854 46.4728 12.0748 46.8033 11.7332C47.1339 11.3915 47.5133 11.1275 47.9414 10.9412C48.3719 10.7487 48.8326 10.6449 49.3237 10.6298C49.8147 10.6148 50.3144 10.6985 50.8226 10.8808C51.3247 11.0609 51.7537 11.3104 52.1098 11.6294C52.4746 11.9443 52.7554 12.3107 52.9525 12.7283C53.1581 13.142 53.2682 13.5816 53.2828 14.0471C53.3036 14.5148 53.2211 14.9915 53.0353 15.4772C52.8494 15.9628 52.5912 16.3765 52.2607 16.7182C51.9364 17.0621 51.5558 17.3292 51.1191 17.5195C50.6909 17.7058 50.2314 17.8065 49.7403 17.8215C49.258 17.8326 48.7658 17.748 48.2638 17.5679ZM48.5818 16.7367C48.9458 16.8673 49.3053 16.9255 49.6605 16.9113C50.0219 16.8993 50.3584 16.8217 50.6701 16.6786C50.9904 16.5316 51.2717 16.328 51.514 16.0679C51.7625 15.8101 51.9558 15.5006 52.094 15.1395C52.2322 14.7784 52.2938 14.4216 52.2788 14.0692C52.27 13.7191 52.1924 13.3904 52.046 13.0829C51.9083 12.7715 51.7063 12.4972 51.4402 12.2601C51.1804 12.0253 50.8685 11.8426 50.5046 11.712C50.1343 11.5792 49.7685 11.5188 49.4071 11.5308C49.052 11.545 48.7143 11.6256 48.3939 11.7727C48.076 11.9136 47.7927 12.1129 47.5442 12.3707C47.302 12.6308 47.1118 12.9414 46.9736 13.3025C46.8354 13.6636 46.7707 14.0193 46.7794 14.3694C46.7944 14.7218 46.874 15.0548 47.018 15.3684C47.1644 15.6759 47.3675 15.947 47.6273 16.1819C47.8934 16.4189 48.2116 16.6039 48.5818 16.7367Z" fill="white"/>
<path d="M52.5993 19.2074L57.0916 13.839L61.0718 16.7651L60.5134 17.4323L57.339 15.0985L53.9633 19.1325L57.2506 21.5491L56.6923 22.2164L52.5993 19.2074ZM55.3412 17.346L55.8867 16.6941L58.7872 18.8264L58.2417 19.4783L55.3412 17.346Z" fill="white"/>
<path d="M60.489 25.8765L68.3925 26.1076L68.8322 26.9946L63.749 32.4528L63.2827 31.5121L68.0017 26.5761L68.1793 26.9345L60.9465 26.7994L60.489 25.8765ZM62.7125 26.4338L63.5748 26.3775L65.3247 29.9076L64.7112 30.4656L62.7125 26.4338Z" fill="white"/>
<path d="M62.8687 33.1722L69.7772 32.044L70.7882 36.5213L69.9274 36.6517L69.0816 32.906L69.3812 33.0999L63.0868 34.1379L62.8687 33.1722Z" fill="white"/>
<path d="M63.9204 37.8026L70.9176 38.0031L70.9417 42.9431L70.0721 42.9182L70.0528 38.9782L64.795 38.8275L64.815 42.9075L63.9453 42.8825L63.9204 37.8026ZM67.0536 38.8023L67.9033 38.8266L67.9209 42.4266L67.0712 42.4022L67.0536 38.8023Z" fill="white"/>
<path d="M62.6313 48.3339L69.4016 50.1128L69.1419 51.0785L62.3716 49.2996L62.6313 48.3339ZM63.935 43.4862L70.7052 45.265L70.4455 46.2307L63.6753 44.4519L63.935 43.4862ZM66.7189 45.1482L67.5603 45.3692L66.467 49.4348L65.6256 49.2137L66.7189 45.1482Z" fill="white"/>
<path d="M60.0307 53.2024C60.3085 52.7471 60.6414 52.3676 61.0295 52.064C61.4199 51.7693 61.8422 51.5566 62.2963 51.4259C62.7529 51.3042 63.2197 51.2679 63.6968 51.317C64.174 51.366 64.6405 51.5156 65.0964 51.7657C65.5523 52.0159 65.9216 52.3248 66.2043 52.6926C66.487 53.0604 66.6818 53.4635 66.7887 53.902C66.9015 54.3437 66.9176 54.7968 66.8369 55.2615C66.7586 55.7351 66.5806 56.1995 66.3028 56.6548C66.0216 57.1158 65.6811 57.4949 65.2814 57.7921C64.884 58.0982 64.4441 58.3013 63.9619 58.4013L63.748 57.5434C64.1324 57.4504 64.4698 57.2937 64.7603 57.0733C65.0567 56.8561 65.3038 56.5853 65.5017 56.2609C65.7066 55.9251 65.8391 55.58 65.8993 55.2256C65.956 54.8769 65.9434 54.5396 65.8614 54.2136C65.7795 53.8876 65.6288 53.5847 65.4095 53.3048C65.1925 53.0339 64.9146 52.8054 64.5756 52.6194C64.2366 52.4334 63.8862 52.3172 63.5245 52.2707C63.1652 52.2331 62.8161 52.2618 62.4773 52.357C62.1384 52.4521 61.8237 52.6099 61.5332 52.8303C61.2392 53.0564 60.9898 53.3374 60.7849 53.6731C60.587 53.9975 60.4597 54.3341 60.403 54.6828C60.3522 55.0347 60.383 55.3934 60.4954 55.7589L59.6045 56.0108C59.4556 55.5644 59.419 55.1 59.495 54.6176C59.5674 54.1408 59.746 53.6691 60.0307 53.2024Z" fill="white"/>
<path d="M57.732 57.642L62.4888 61.9087L62.1154 61.9087L64.015 60.0753L64.6627 60.6562L60.5109 64.6632L59.8632 64.0823L61.7628 62.2489L61.7837 62.5892L57.0268 58.3226L57.732 57.642Z" fill="white"/>
<path d="M54.4811 60.4233L58.4009 66.2229L55.7782 67.7C55.116 68.0729 54.5103 68.2387 53.961 68.1973C53.4117 68.1558 52.9728 67.8921 52.6443 67.406C52.3232 66.931 52.2569 66.4651 52.4453 66.0081C52.6375 65.5568 53.0269 65.1659 53.6136 64.8354L53.6247 65.1723C52.9451 65.5551 52.3375 65.7181 51.8019 65.6613C51.2642 65.6133 50.8292 65.3436 50.497 64.852C50.161 64.3549 50.0895 63.8575 50.2825 63.3599C50.4734 62.8711 50.9435 62.4157 51.6929 61.9937L54.4811 60.4233ZM54.0608 61.5637L52.1527 62.6384C51.688 62.9001 51.3936 63.1765 51.2695 63.4675C51.1433 63.7673 51.1941 64.0857 51.4218 64.4226C51.6495 64.7596 51.9347 64.9383 52.2774 64.9588C52.6143 64.9826 53.0151 64.8636 53.4798 64.6019L55.388 63.5272L54.0608 61.5637ZM55.8136 64.1569L54.1145 65.1138C53.6905 65.3526 53.4222 65.6143 53.3097 65.8988C53.1915 66.1866 53.2368 66.4851 53.4459 66.7944C53.6587 67.1092 53.9325 67.2829 54.2673 67.3155C54.5963 67.3514 54.9728 67.2499 55.3968 67.0111L57.0959 66.0542L55.8136 64.1569Z" fill="white"/>
<path d="M45.3789 64.0523C45.9003 63.9403 46.4105 63.9227 46.9095 63.9993C47.402 64.0772 47.855 64.2352 48.2684 64.473C48.6837 64.7172 49.0418 65.0282 49.3429 65.4058C49.6439 65.7834 49.8646 66.2191 50.005 66.7129C50.1455 67.2066 50.1837 67.6815 50.1197 68.1375C50.0557 68.5935 49.9045 69.0104 49.6662 69.3881C49.4296 69.7723 49.1143 70.0985 48.7203 70.3668C48.3263 70.6351 47.8653 70.8259 47.3374 70.9392C46.8159 71.0511 46.3122 71.0674 45.8263 70.988C45.3356 70.9165 44.8827 70.7585 44.4674 70.5143C44.0474 70.2779 43.6902 69.9701 43.3957 69.5911C43.0946 69.2135 42.873 68.7746 42.7308 68.2744C42.5885 67.7742 42.5494 67.2962 42.6134 66.8402C42.6708 66.3856 42.8211 65.9655 43.0642 65.5799C43.3025 65.2022 43.6187 64.8792 44.0127 64.6109C44.402 64.3504 44.8574 64.1642 45.3789 64.0523ZM45.6223 64.9083C45.2443 64.9895 44.9138 65.1285 44.6309 65.3253C44.3414 65.5235 44.1122 65.7632 43.9432 66.0444C43.7695 66.3334 43.6621 66.6491 43.6211 66.9912C43.5736 67.3348 43.6027 67.6926 43.7085 68.0645C43.8142 68.4364 43.9802 68.7648 44.2065 69.0496C44.4262 69.3359 44.6895 69.5685 44.9963 69.7476C45.2984 69.9345 45.6307 70.0571 45.9931 70.1153C46.3489 70.175 46.7159 70.1643 47.0939 70.0831C47.4785 70.0006 47.8155 69.8602 48.1049 69.662C48.3879 69.4652 48.6162 69.2223 48.7899 68.9332C48.9654 68.6506 49.0769 68.3375 49.1245 67.9939C49.1655 67.6517 49.1331 67.2947 49.0273 66.9228C48.9215 66.5508 48.7588 66.2218 48.5391 65.9355C48.3129 65.6507 48.0454 65.4156 47.7368 65.2301C47.4299 65.051 47.0986 64.9316 46.7427 64.8719C46.3804 64.8136 46.0069 64.8258 45.6223 64.9083Z" fill="white"/>
</svg>
