<svg width="12" height="133" viewBox="0 0 12 133" fill="none" xmlns="http://www.w3.org/2000/svg">
<path d="M6.75 1C6.75 0.585786 6.41421 0.25 6 0.25C5.58579 0.25 5.25 0.585786 5.25 1L6.75 1ZM5.46967 132.546C5.76256 132.838 6.23744 132.838 6.53033 132.546L11.3033 127.773C11.5962 127.48 11.5962 127.005 11.3033 126.712C11.0104 126.419 10.5355 126.419 10.2426 126.712L6 130.955L1.75736 126.712C1.46447 126.419 0.989593 126.419 0.696699 126.712C0.403806 127.005 0.403806 127.48 0.696699 127.773L5.46967 132.546ZM6 1L5.25 1L5.25 132.015H6H6.75L6.75 1L6 1Z" fill="white"/>
</svg>
